<?xml version="1.0" encoding="UTF-8" standalone="no"?>
<!DOCTYPE svg PUBLIC "-//W3C//DTD SVG 1.1//EN" "http://www.w3.org/Graphics/SVG/1.1/DTD/svg11.dtd">
<svg xmlns="http://www.w3.org/2000/svg" version="1.1" viewBox="0 0 176 176" width="176" height="176" fill="#1f276f">
<path d="
  M 79.14 12.15
  L 113.15 117.02
  Q 113.30 117.50 113.00 117.08
  L 51.57 32.53
  A 0.90 0.83 -35.9 0 1 51.81 31.32
  L 78.43 11.93
  A 0.46 0.46 0.0 0 1 79.14 12.15
  Z"
/>
<path d="
  M 112.33 42.27
  Q 114.90 44.01 116.92 46.35
  A 1.65 0.92 -79.8 0 1 117.23 47.25
  L 123.59 130.51
  Q 123.66 131.40 123.43 130.69
  L 89.55 26.49
  Q 89.30 25.72 90.00 26.22
  C 97.46 31.53 104.75 37.16 112.33 42.27
  Z"
/>
<path d="
  M 149.28 72.21
  A 0.71 0.29 -69.0 0 1 149.29 72.89
  L 128.72 136.49
  Q 128.31 137.76 128.20 136.43
  L 121.79 53.25
  Q 121.69 51.98 122.75 52.76
  L 149.28 72.21
  Z"
/>
<path d="
  M 94.75 144.53
  A 0.89 0.68 -7.0 0 1 93.95 144.06
  L 66.33 59.22
  Q 66.12 58.57 66.57 59.18
  L 128.09 143.92
  Q 128.51 144.49 127.75 144.49
  L 94.75 144.53
  Z"
/>
<path d="
  M 61.12 63.91
  C 61.20 63.65 61.21 62.88 61.52 63.06
  A 0.51 0.25 -81.3 0 1 61.65 63.49
  L 55.25 147.32
  Q 55.20 147.90 54.98 147.22
  L 44.75 115.75
  A 1.75 1.10 -55.6 0 1 44.79 114.77
  Q 53.15 89.37 61.12 63.91
  Z"
/>
<path d="
  M 37.35 119.39
  L 27.14 87.84
  A 0.34 0.34 0.0 0 1 27.26 87.46
  L 54.06 67.94
  A 0.34 0.34 0.0 0 1 54.59 68.32
  L 37.99 119.39
  A 0.34 0.34 0.0 0 1 37.35 119.39
  Z"
/>
<path d="
  M 94.19 160.83
  L 61.00 160.75
  A 0.79 0.69 2.0 0 1 60.20 160.00
  L 66.65 76.01
  Q 66.74 74.85 67.08 75.92
  C 69.45 83.32 94.67 160.45 94.42 160.75
  A 0.34 0.20 11.2 0 1 94.19 160.83
  Z"
/>
</svg>
